<?xml version="1.0" encoding="UTF-8"?>
<svg xmlns="http://www.w3.org/2000/svg" width="102" height="52" viewBox="0 0 102 52" fill="none">
  <path d="M101.06 35.0343L91.028 25.2943L101.065 15.4897L101.955 14.62L101.065 13.7504L94.3448 7.18581L93.4545 6.31616L92.5643 7.18581L82.5275 16.9904L72.5569 7.18581L71.6667 6.31616L70.7714 7.18581L64.0514 13.7504L63.1662 14.62L64.0514 15.4897L74.0271 25.2943L64.0514 35.0393L63.1611 35.9089L64.0514 36.7786L70.7714 43.3432L71.6616 44.2128L72.5518 43.3432L82.5275 33.5982L92.5694 43.3432L93.4596 44.2128L94.3448 43.3432L101.065 36.7786L101.96 35.904L101.06 35.0343Z" fill="#ffffff"></path>
  <path d="M46.0173 5.45648V51.4312H58.6495V0L46.0173 5.45648Z" fill="#ffffff"></path>
  <path d="M26.3684 33.2433C26.2614 35.1746 25.3865 36.9889 23.93 38.3C22.4735 39.6111 20.5503 40.3155 18.5698 40.2633C16.5893 40.211 14.7079 39.4063 13.326 38.0203C11.9441 36.6343 11.1708 34.7765 11.1708 32.8424C11.1708 30.9082 11.9441 29.0505 13.326 27.6645C14.7079 26.2785 16.5893 25.4737 18.5698 25.4215C20.5503 25.3692 22.4735 26.0736 23.93 27.3848C25.3865 28.6959 26.2614 30.5102 26.3684 32.4415V33.2433ZM26.3684 14.4368V16.0353C23.5071 14.8063 20.377 14.2933 17.2615 14.5427C14.1459 14.7921 11.1433 15.7961 8.52533 17.4638C5.90737 19.1315 3.75676 21.4102 2.26817 24.0937C0.779579 26.7772 0 29.7808 0 32.8325C0 35.8842 0.779579 38.8877 2.26817 41.5712C3.75676 44.2547 5.90737 46.5335 8.52533 48.2011C11.1433 49.8688 14.1459 50.8728 17.2615 51.1222C20.377 51.3717 23.5071 50.8587 26.3684 49.6296V51.4311H38.7989V14.4516L26.3684 14.4368Z" fill="#ffffff"></path>
</svg>
